<svg width="750" height="160" viewBox="0 0 150 31" fill="none" xmlns="http://www.w3.org/2000/svg">
<path fill-rule="evenodd" clip-rule="evenodd" d="M65.632 7.99381H69.408L65.344 24.5099H62.112L58.688 11.9907L55.264 24.5099H52.064L48 7.99381H51.776L53.984 19.0266L57.088 7.99381H60.32L63.424 19.0926L65.632 7.99381ZM145.28 7.99381H149.152L143.168 25.1375C142.931 25.8203 142.641 26.4818 142.299 27.1154C141.92 27.809 141.494 28.4105 141.022 28.9197C140.827 29.1309 140.619 29.3294 140.4 29.5143C139.252 30.4848 137.809 31.0054 136.325 30.9843C136.313 30.9843 136.3 30.9843 136.288 30.9843C135.756 30.9825 135.226 30.9303 134.703 30.8284C134.451 30.7798 134.2 30.7216 133.952 30.6539V27.7141C134.15 27.787 134.354 27.8426 134.561 27.8803C134.908 27.9456 135.302 27.9783 135.744 27.9783C136.21 27.985 136.672 27.8948 137.104 27.7132C137.535 27.5316 137.927 27.2623 138.255 26.9213C138.261 26.9158 138.266 26.9103 138.272 26.9048C138.53 26.637 138.761 26.3434 138.963 26.0284C139.407 25.3498 139.827 24.4693 140.224 23.3868L134.272 7.99381H138.112L141.888 19.2908L145.28 7.99381ZM79.904 24.5099V12.288C79.9042 11.818 79.9015 11.3479 79.896 10.8779C79.882 9.70598 79.8483 8.81307 79.795 8.19923C79.7893 8.13069 79.783 8.06222 79.776 7.99381H83.168C83.2296 8.58345 83.2743 9.17485 83.302 9.76723C83.3192 10.1448 83.3279 10.5227 83.328 10.9006H83.392C83.7574 10.0128 84.3735 9.25915 85.16 8.73806C85.262 8.66831 85.366 8.60187 85.472 8.53884C86.4533 7.95527 87.5413 7.66348 88.736 7.66348C89.3018 7.65807 89.866 7.72675 90.415 7.86787C91.4165 8.11789 92.304 8.71647 92.928 9.56284C93.3267 10.1145 93.6327 10.7314 93.833 11.3879C94.011 11.946 94.1417 12.5657 94.225 13.247C94.3015 13.8932 94.3385 14.5438 94.336 15.1948V24.5099H90.688V15.1618C90.6895 14.7598 90.6705 14.3581 90.631 13.9582C90.5477 13.1462 90.3723 12.49 90.105 11.9897C90.0629 11.9108 90.0171 11.834 89.968 11.7595C89.7955 11.4981 89.5748 11.2745 89.3184 11.1015C89.062 10.9284 88.7751 10.8093 88.474 10.751C88.2129 10.6948 87.9467 10.6674 87.68 10.6694C86.4427 10.6694 85.44 11.1154 84.672 12.0072C83.904 12.8991 83.52 14.0497 83.52 15.4591V24.5099H79.904ZM108.384 9.84361H108.448V0H112.064V20.1827C112.064 20.6317 112.066 21.0808 112.069 21.5298C112.08 23.0004 112.11 23.9938 112.16 24.5099H108.768C108.756 24.3798 108.747 24.2493 108.74 24.1187C108.719 23.7086 108.707 23.1443 108.704 22.4258C108.704 22.3388 108.704 22.2517 108.704 22.1646H108.64C108.23 22.8209 107.689 23.3793 107.053 23.8028C106.898 23.9079 106.739 24.006 106.576 24.097C105.691 24.5925 104.768 24.8403 103.808 24.8403C103.045 24.849 102.287 24.7262 101.563 24.4769C100.495 24.0942 99.5614 23.393 98.88 22.4619C97.8747 21.1283 97.2923 19.3813 97.133 17.2212C97.1025 16.7997 97.0874 16.3772 97.088 15.9546C97.0848 15.2365 97.142 14.5195 97.259 13.8116C97.3851 13.0407 97.6073 12.2899 97.92 11.5778C98.2199 10.8906 98.624 10.2571 99.117 9.70116C99.4647 9.31403 99.8581 8.97347 100.288 8.68748C101.312 8.00482 102.517 7.66348 103.904 7.66348C104.61 7.65493 105.312 7.77191 105.98 8.00929C106.938 8.36498 107.774 9.00271 108.384 9.84361V9.84361ZM125.216 24.5099V10.5703H122.592V7.99381H125.216V5.97884C125.211 5.43983 125.274 4.90244 125.402 4.37987C125.605 3.54146 126.041 2.78257 126.656 2.19665C127.256 1.63468 127.983 1.23808 128.771 1.04361C129.253 0.916301 129.778 0.844731 130.346 0.828903C130.428 0.826726 130.51 0.825693 130.592 0.825806C131.16 0.823084 131.727 0.900177 132.275 1.05497C132.398 1.09003 132.52 1.12928 132.64 1.17265C132.964 1.28792 133.276 1.43808 133.57 1.62065C133.811 1.77097 134.035 1.94745 134.24 2.1471L132.96 4.39329C132.704 4.17308 132.405 3.9969 132.064 3.86477C131.723 3.73265 131.371 3.66658 131.008 3.66658C130.347 3.66658 129.824 3.8923 129.44 4.34374C129.056 4.79518 128.864 5.41729 128.864 6.21006V7.99381H133.376V10.5703H128.864V24.5099H125.216ZM72.192 24.5099V7.99381H75.84V24.5099H72.192ZM116.224 24.5099V7.99381H119.872V24.5099H116.224ZM108.416 17.9035V14.6333C108.42 14.1446 108.352 13.6582 108.212 13.1912C108.034 12.6096 107.726 12.0794 107.312 11.6439C106.576 10.8621 105.632 10.4712 104.48 10.4712C103.264 10.4712 102.331 10.9557 101.68 11.9246C101.394 12.3608 101.176 12.8409 101.035 13.3471C100.911 13.7731 100.822 14.2414 100.767 14.752C100.724 15.1734 100.703 15.5969 100.704 16.0206C100.704 17.249 100.846 18.2971 101.131 19.1649C101.268 19.5936 101.458 20.0023 101.696 20.3809C101.941 20.7766 102.26 21.1183 102.634 21.3863C103.155 21.7511 103.771 21.9334 104.48 21.9334C105.675 21.9334 106.629 21.5701 107.344 20.8434C107.862 20.312 108.207 19.6272 108.331 18.8841C108.389 18.5607 108.418 18.2324 108.416 17.9035V17.9035ZM74.016 5.74761C73.2907 5.74761 72.7093 5.54391 72.272 5.13652C71.9037 4.79439 71.6749 4.32066 71.632 3.8111C71.6212 3.70825 71.6158 3.60487 71.616 3.50142C71.6137 3.25601 71.6443 3.01144 71.707 2.77471C71.804 2.41146 72.0001 2.08467 72.272 1.83329C72.5608 1.56755 72.9116 1.38399 73.29 1.30065C73.5284 1.24655 73.7719 1.22023 74.016 1.22219C74.7413 1.22219 75.3227 1.42589 75.76 1.83329C76.1973 2.24069 76.416 2.79673 76.416 3.50142C76.4184 3.75087 76.3847 3.99929 76.316 4.23845C76.2143 4.58495 76.0219 4.89574 75.76 5.13652C75.4712 5.40225 75.1204 5.58582 74.742 5.66916C74.5036 5.72326 74.2601 5.74957 74.016 5.74761V5.74761ZM118.048 5.74761C117.323 5.74761 116.741 5.54391 116.304 5.13652C115.936 4.79439 115.707 4.32066 115.664 3.8111C115.653 3.70825 115.648 3.60487 115.648 3.50142C115.646 3.25601 115.676 3.01144 115.739 2.77471C115.836 2.41146 116.032 2.08467 116.304 1.83329C116.593 1.56755 116.944 1.38399 117.322 1.30065C117.56 1.24655 117.804 1.22023 118.048 1.22219C118.773 1.22219 119.355 1.42589 119.792 1.83329C120.229 2.24069 120.448 2.79673 120.448 3.50142C120.45 3.75087 120.417 3.99929 120.348 4.23845C120.246 4.58495 120.054 4.89574 119.792 5.13652C119.503 5.40225 119.152 5.58582 118.774 5.66916C118.536 5.72326 118.292 5.74957 118.048 5.74761V5.74761Z" fill="white"/>
<path fill-rule="evenodd" clip-rule="evenodd" d="M12.759 7.22581C5.954 7.22581 1.702 10.7169 4.26264e-07 17.6991C2.552 14.208 5.529 12.8991 8.931 13.7714C10.872 14.2689 12.26 15.7141 13.795 17.3141C16.297 19.9195 19.193 22.9347 25.517 22.9347C32.321 22.9347 36.574 19.4436 38.275 12.4625C35.724 15.9536 32.747 17.2625 29.345 16.3892C27.403 15.8916 26.015 14.4465 24.48 12.8475C21.978 10.24 19.083 7.22581 12.759 7.22581Z" fill="#38BDF8"/>
</svg>
